<svg width="603" height="145" viewBox="0 0 603 145" fill="none" xmlns="http://www.w3.org/2000/svg">
<path d="M55.95 2.94999C50.65 2.94999 46.55 4.34999 43.65 7.14999C40.75 9.84999 39.25 13.2 39.15 17.2C39.15 21.2 40.5 25.65 43.2 30.55C45.9 35.45 49.8 39.95 54.9 44.05C55.4 44.45 56.15 45.05 57.15 45.85C60.45 48.45 62.85 50.4 64.35 51.7C65.85 52.9 67.75 54.55 70.05 56.65C72.35 58.65 73.95 60.25 74.85 61.45C75.75 62.55 76.75 64 77.85 65.8C79.05 67.6 79.75 69.25 79.95 70.75C80.15 72.25 80.25 73.95 80.25 75.85C80.25 77.75 79.95 79.75 79.35 81.85C76.95 90.45 71.6 97.75 63.3 103.75C55 109.65 44.5 112.6 31.8 112.6C27.7 112.6 23.8 112.1 20.1 111.1C16.4 110.1 13.4 108.9 11.1 107.5C8.9 106.1 6.95 104.75 5.25 103.45C3.55 102.05 2.35 100.85 1.65 99.85L0.6 98.35L13.8 72.7C13.8 73.2 13.8 73.85 13.8 74.65C13.9 75.35 14.1 76.85 14.4 79.15C14.7 81.45 15.05 83.65 15.45 85.75C15.95 87.85 16.6 90.25 17.4 92.95C18.3 95.55 19.3 97.9 20.4 100C21.5 102 22.9 103.85 24.6 105.55C26.3 107.25 28.15 108.35 30.15 108.85C35.35 110.25 40.8 109.55 46.5 106.75C52.2 103.85 55.45 100 56.25 95.2C56.55 93.4 56.35 91.55 55.65 89.65C55.05 87.75 54.25 86.05 53.25 84.55C52.35 83.05 50.8 81.3 48.6 79.3C46.5 77.3 44.7 75.7 43.2 74.5C41.8 73.3 39.65 71.55 36.75 69.25C33.95 67.05 31.6 65.1 29.7 63.4C27.9 61.7 25.9 59.4 23.7 56.5C21.6 53.6 20.1 50.7 19.2 47.8C18.3 44.9 17.9 41.4 18 37.3C18.2 33.1 19.2 28.7 21 24.1C27.1 8.4 39.6 0.649994 58.5 0.849992C58.8 0.849992 59 0.849992 59.1 0.849992C65.4 0.849992 71.55 1.29999 77.55 2.19999C83.65 2.99999 88.15 3.8 91.05 4.6L95.4 5.95L80.4 38.95C80.4 38.45 80.35 37.8 80.25 37C80.25 36.1 80.05 34.4 79.65 31.9C79.25 29.4 78.75 27.05 78.15 24.85C77.55 22.55 76.6 20 75.3 17.2C74.1 14.4 72.65 12 70.95 10C69.35 7.99999 67.25 6.34999 64.65 5.04999C62.05 3.64999 59.15 2.94999 55.95 2.94999ZM136.448 36.4H125.948L106.898 105.4C109.898 105.4 112.048 104.85 113.348 103.75L113.948 106C113.548 106.5 112.998 107.1 112.298 107.8C111.698 108.4 110.198 109.25 107.798 110.35C105.498 111.45 102.998 112 100.298 112H91.2984C88.1984 112 85.8484 110.95 84.2484 108.85C82.7484 106.65 82.4484 104 83.3484 100.9L98.7984 44.65C99.6984 41.35 99.0984 38.6 96.9984 36.4H88.8984L89.7984 33.25H104.048C107.248 32.25 110.448 30.7 113.648 28.6C116.848 26.4 119.598 24.2 121.898 22C124.198 19.7 126.248 17.5 128.048 15.4C129.948 13.3 131.398 11.55 132.398 10.15L133.748 8.2L126.848 33.25H137.348L136.448 36.4ZM189.115 104.5C192.115 104.5 194.265 103.95 195.565 102.85L196.015 105.1C195.715 105.6 195.215 106.2 194.515 106.9C193.815 107.5 192.265 108.35 189.865 109.45C187.565 110.55 185.115 111.1 182.515 111.1H173.365C170.965 111.1 169.015 110.4 167.515 109C166.015 107.5 165.215 105.6 165.115 103.3C160.815 109.3 154.815 112.3 147.115 112.3C137.315 112.3 130.365 108.65 126.265 101.35C122.265 94.05 121.915 84.45 125.215 72.55C128.615 60.15 134.365 50.25 142.465 42.85C150.665 35.35 160.865 31.6 173.065 31.6C177.265 31.6 181.265 31.9 185.065 32.5C188.865 33.1 191.965 33.85 194.365 34.75C196.865 35.55 199.015 36.4 200.815 37.3C202.715 38.2 204.065 38.95 204.865 39.55L206.215 40.45C199.315 65.45 193.515 86.4 188.815 103.3L189.115 104.5ZM178.015 52.6C180.915 41.3 179.815 35.65 174.715 35.65C169.715 35.55 165.315 38.2 161.515 43.6C157.715 48.9 154.165 57.65 150.865 69.85C149.565 74.55 148.615 78.9 148.015 82.9C147.515 86.9 147.365 90.25 147.565 92.95C147.865 95.65 148.365 97.95 149.065 99.85C149.865 101.65 150.815 103 151.915 103.9C153.015 104.7 154.215 105.1 155.515 105.1C156.915 105.1 158.265 104.75 159.565 104.05C160.865 103.25 161.965 102.3 162.865 101.2C163.765 100.1 164.415 99.25 164.815 98.65C165.215 98.05 165.515 97.55 165.715 97.15L165.565 97L178.015 52.6ZM251.786 40.15C255.986 36.55 260.336 34.1 264.836 32.8C269.436 31.5 273.336 31.55 276.536 32.95C279.736 34.25 282.036 36.9 283.436 40.9C284.936 44.8 284.736 50.2 282.836 57.1L258.986 67.3L261.236 59.05C261.736 57.45 262.086 55.8 262.286 54.1C262.586 52.4 262.736 50.45 262.736 48.25C262.736 45.95 262.136 44.3 260.936 43.3C259.836 42.2 258.086 42 255.686 42.7C249.486 44.5 244.686 51.4 241.286 63.4C240.186 67.3 238.536 73.15 236.336 80.95C234.236 88.65 232.736 94.15 231.836 97.45C231.036 100.95 230.936 103.8 231.536 106C232.236 108.1 233.136 109.6 234.236 110.5L236.036 111.85H194.936C195.136 111.75 195.486 111.6 195.986 111.4C196.386 111.2 197.186 110.7 198.386 109.9C199.486 109.1 200.536 108.2 201.536 107.2C202.436 106.2 203.436 104.85 204.536 103.15C205.636 101.35 206.486 99.4 207.086 97.3C209.786 87.2 214.186 71.25 220.286 49.45C221.386 45.95 221.786 43.65 221.486 42.55C221.186 41.35 219.486 40.4 216.386 39.7L249.836 32.2C249.336 33.9 248.586 36.5 247.586 40C246.686 43.5 246.086 45.85 245.786 47.05C247.686 44.25 249.686 41.95 251.786 40.15ZM325.481 2.94999C320.181 2.94999 316.081 4.34999 313.181 7.14999C310.281 9.84999 308.781 13.2 308.681 17.2C308.681 21.2 310.031 25.65 312.731 30.55C315.431 35.45 319.331 39.95 324.431 44.05C324.931 44.45 325.681 45.05 326.681 45.85C329.981 48.45 332.381 50.4 333.881 51.7C335.381 52.9 337.281 54.55 339.581 56.65C341.881 58.65 343.481 60.25 344.381 61.45C345.281 62.55 346.281 64 347.381 65.8C348.581 67.6 349.281 69.25 349.481 70.75C349.681 72.25 349.781 73.95 349.781 75.85C349.781 77.75 349.481 79.75 348.881 81.85C346.481 90.45 341.131 97.75 332.831 103.75C324.531 109.65 314.031 112.6 301.331 112.6C297.231 112.6 293.331 112.1 289.631 111.1C285.931 110.1 282.931 108.9 280.631 107.5C278.431 106.1 276.481 104.75 274.781 103.45C273.081 102.05 271.881 100.85 271.181 99.85L270.131 98.35L283.331 72.7C283.331 73.2 283.331 73.85 283.331 74.65C283.431 75.35 283.631 76.85 283.931 79.15C284.231 81.45 284.581 83.65 284.981 85.75C285.481 87.85 286.131 90.25 286.931 92.95C287.831 95.55 288.831 97.9 289.931 100C291.031 102 292.431 103.85 294.131 105.55C295.831 107.25 297.681 108.35 299.681 108.85C304.881 110.25 310.331 109.55 316.031 106.75C321.731 103.85 324.981 100 325.781 95.2C326.081 93.4 325.881 91.55 325.181 89.65C324.581 87.75 323.781 86.05 322.781 84.55C321.881 83.05 320.331 81.3 318.131 79.3C316.031 77.3 314.231 75.7 312.731 74.5C311.331 73.3 309.181 71.55 306.281 69.25C303.481 67.05 301.131 65.1 299.231 63.4C297.431 61.7 295.431 59.4 293.231 56.5C291.131 53.6 289.631 50.7 288.731 47.8C287.831 44.9 287.431 41.4 287.531 37.3C287.731 33.1 288.731 28.7 290.531 24.1C296.631 8.4 309.131 0.649994 328.031 0.849992C328.331 0.849992 328.531 0.849992 328.631 0.849992C334.931 0.849992 341.081 1.29999 347.081 2.19999C353.181 2.99999 357.681 3.8 360.581 4.6L364.931 5.95L349.931 38.95C349.931 38.45 349.881 37.8 349.781 37C349.781 36.1 349.581 34.4 349.181 31.9C348.781 29.4 348.281 27.05 347.681 24.85C347.081 22.55 346.131 20 344.831 17.2C343.631 14.4 342.181 12 340.481 10C338.881 7.99999 336.781 6.34999 334.181 5.04999C331.581 3.64999 328.681 2.94999 325.481 2.94999ZM416.766 32.2H453.516C442.016 39.1 432.366 48.85 424.566 61.45C424.466 61.55 424.366 61.65 424.266 61.75C424.266 61.85 424.216 61.9 424.116 61.9C398.416 104.8 379.416 130.75 367.116 139.75C364.116 141.95 361.066 143.3 357.966 143.8C354.966 144.4 352.416 144.45 350.316 143.95C348.316 143.45 346.366 142.55 344.466 141.25C342.466 139.95 341.166 138.95 340.566 138.25C339.866 137.65 339.316 137.1 338.916 136.6L354.966 124.15C354.966 124.15 355.016 124.15 355.116 124.15C355.516 124.95 355.916 125.7 356.316 126.4C356.816 127.2 357.766 128.35 359.166 129.85C360.566 131.35 361.916 132.4 363.216 133C364.616 133.7 366.266 133.85 368.166 133.45C370.166 133.05 372.066 131.85 373.866 129.85C377.966 125.35 382.616 119.45 387.816 112.15H370.866C370.866 111.55 370.866 110.55 370.866 109.15C370.966 107.65 371.016 104.1 371.016 98.5C371.116 92.8 371.066 85.95 370.866 77.95C370.766 70.25 369.816 62.6 368.016 55C366.316 47.3 364.616 41.6 362.916 37.9L360.366 32.2H401.916C399.716 32.3 397.866 33.45 396.366 35.65C394.966 37.75 394.116 39.85 393.816 41.95L393.366 44.95C393.966 57.45 394.266 68.4 394.266 77.8C394.366 89.8 394.666 97.8 395.166 101.8C403.166 90.1 411.966 76.35 421.566 60.55C423.266 56.65 424.616 51.9 425.616 46.3C426.016 44.2 425.966 42.25 425.466 40.45C424.966 38.65 424.266 37.3 423.366 36.4C422.466 35.4 421.516 34.55 420.516 33.85C419.516 33.15 418.666 32.7 417.966 32.5L416.766 32.2ZM494.104 40.15C498.704 36.95 503.454 34.7 508.354 33.4C513.254 32.1 517.604 31.95 521.404 32.95C525.204 33.95 527.904 36.4 529.504 40.3C531.104 44.1 530.904 49.65 528.904 56.95L515.554 105.4C518.554 105.4 520.704 104.8 522.004 103.6L522.454 106C522.154 106.5 521.654 107.1 520.954 107.8C520.254 108.4 518.704 109.25 516.304 110.35C514.004 111.35 511.554 111.85 508.954 111.85H499.954C496.854 111.85 494.504 110.8 492.904 108.7C491.404 106.6 491.104 104 492.004 100.9L503.554 59.05C506.154 49.45 504.104 44.65 497.404 44.65C493.104 44.65 488.504 47.45 483.604 53.05C478.804 58.65 475.954 63.15 475.054 66.55C474.654 67.95 471.804 78.2 466.504 97.3C465.704 100.9 465.604 103.8 466.204 106C466.904 108.1 467.804 109.6 468.904 110.5L470.704 111.85H429.604C429.804 111.75 430.154 111.6 430.654 111.4C431.054 111.2 431.854 110.7 433.054 109.9C434.154 109.1 435.204 108.2 436.204 107.2C437.104 106.2 438.104 104.8 439.204 103C440.304 101.2 441.154 99.3 441.754 97.3C445.354 84.3 449.754 68.35 454.954 49.45C456.054 45.95 456.454 43.65 456.154 42.55C455.854 41.35 454.154 40.4 451.054 39.7L484.504 32.2C484.104 33.6 483.154 36.95 481.654 42.25C480.254 47.55 479.104 51.8 478.204 55C482.604 49.3 487.904 44.35 494.104 40.15ZM600.534 64.6L577.284 64.9C577.284 64.9 578.184 61.65 579.984 55.15C582.784 42.45 581.234 36.1 575.334 36.1C575.134 36.1 574.834 36.15 574.434 36.25C574.034 36.35 573.184 36.9 571.884 37.9C570.684 38.9 569.484 40.25 568.284 41.95C567.184 43.55 565.834 46.1 564.234 49.6C562.734 53.1 561.334 57.2 560.034 61.9C557.634 70.2 556.634 76.9 557.034 82C557.434 87.1 558.634 90.75 560.634 92.95C562.634 95.15 565.284 96.25 568.584 96.25C573.684 96.25 578.534 95.25 583.134 93.25C587.734 91.25 591.384 88.2 594.084 84.1C593.784 84.8 593.334 85.8 592.734 87.1C592.234 88.4 590.934 90.65 588.834 93.85C586.734 97.05 584.334 99.9 581.634 102.4C579.034 104.8 575.434 107.05 570.834 109.15C566.334 111.15 561.434 112.15 556.134 112.15C550.734 112.15 546.184 111.25 542.484 109.45C538.784 107.55 536.084 105.15 534.384 102.25C532.684 99.35 531.584 95.95 531.084 92.05C530.584 88.15 530.534 84.35 530.934 80.65C531.434 76.95 532.234 73.1 533.334 69.1C535.834 60.1 541.734 51.7 551.034 43.9C560.434 36 569.384 32.05 577.884 32.05C582.384 32.05 586.234 32.65 589.434 33.85C592.734 35.05 595.184 36.65 596.784 38.65C598.384 40.55 599.634 42.65 600.534 44.95C601.534 47.25 602.034 49.55 602.034 51.85C602.034 54.15 601.934 56.25 601.734 58.15C601.634 60.05 601.434 61.6 601.134 62.8L600.534 64.6Z" fill="white"/>
<path d="M24.5532 90.2089L31.6334 87.6317L34.2089 80.5532C34.2679 80.3911 34.3755 80.251 34.5168 80.1521C34.6582 80.0531 34.8266 80 34.9992 80C35.1717 80 35.3401 80.0531 35.4815 80.1521C35.6229 80.251 35.7304 80.3911 35.7894 80.5532L38.3666 87.6334L45.4468 90.2089C45.6089 90.2679 45.749 90.3755 45.8479 90.5168C45.9469 90.6582 46 90.8266 46 90.9992C46 91.1717 45.9469 91.3401 45.8479 91.4815C45.749 91.6229 45.6089 91.7304 45.4468 91.7894L38.3649 94.3666L35.7894 101.447C35.7304 101.609 35.6229 101.749 35.4815 101.848C35.3401 101.947 35.1717 102 34.9992 102C34.8266 102 34.6582 101.947 34.5168 101.848C34.3755 101.749 34.2679 101.609 34.2089 101.447L31.6317 94.3649L24.5532 91.7894C24.3911 91.7304 24.251 91.6229 24.1521 91.4815C24.0531 91.3401 24 91.1717 24 90.9992C24 90.8266 24.0531 90.6582 24.1521 90.5168C24.251 90.3755 24.3911 90.2679 24.5532 90.2089Z" fill="#FFF9F9"/>
</svg>
